<svg width="22" height="15" viewBox="0 0 22 15" fill="none" xmlns="http://www.w3.org/2000/svg">
<path d="M11.006 14.512H10.986C10.924 14.512 4.721 14.5 3.156 14.075C2.29543 13.8432 1.62335 13.1707 1.392 12.31C1.11058 10.7224 0.974685 9.11235 0.986004 7.5C0.978734 5.88501 1.11831 4.27271 1.403 2.683C1.64071 1.82151 2.30983 1.14595 3.169 0.9C4.691 0.5 10.723 0.5 10.979 0.5H11C11.063 0.5 17.282 0.512 18.831 0.937C19.6898 1.17001 20.3605 1.8411 20.593 2.7C20.8834 4.29354 21.0197 5.91134 21 7.531C21.007 9.14403 20.8671 10.7543 20.582 12.342C20.3477 13.2016 19.6752 13.8726 18.815 14.105C17.295 14.508 11.262 14.512 11.006 14.512ZM9.006 4.505L9.00101 10.505L14.213 7.505L9.006 4.505Z" fill="white"/>
</svg>
